<?xml version="1.0" encoding="UTF-8"?>
<svg id="Ebene_1" xmlns="http://www.w3.org/2000/svg" baseProfile="tiny" version="1.2" viewBox="0 0 956.7 181.2">
  <!-- Generator: Adobe Illustrator 30.3.0, SVG Export Plug-In . SVG Version: 2.1.3 Build 182)  -->
  <g id="Gruppe_143">
    <g id="Gruppe_142">
      <path id="Pfad_143" d="M128.3,79.9h-18.8c-3.8-20-18.8-31.1-42-31.1s-48.6,25-48.6,60.1,4.6,29.7,13.5,40.4c8.7,10.7,20.6,16.1,35.1,16.1,27,0,45.4-18,45.4-44v-2.2h-45.2v-15.9h62v74.5h-11.9l-5-17.6c-10.3,13.3-27,21-45.4,21s-35.3-6.9-48.2-20.6C6.3,146.7,0,129.6,0,109.8s5.9-40.8,18-55.3c12.1-14.3,28.5-21.6,49.4-21.6,33.3,0,56.5,16.5,60.9,47" fill="#48433f"/>
      <path id="Pfad_144" d="M223.2,36.3c24.4,0,42.2,13.5,42.2,37.1s-8.1,31.1-24.6,35.9v.4c14.1,2.8,20.6,11.1,21.6,37.1.6,16.7,3,24.8,7.9,31.1h-21c-2.4-3.2-2.6-5.5-3.4-10.9l-.8-15.5c-.3-7.7-1.9-15.3-4.8-22.4-3-7.5-9.3-11.5-19.2-11.7h-46.6v60.5h-18.8V36.3h67.4ZM214.8,101.5c20.8,0,31.7-7.9,31.7-25.2s-8.9-24.2-24.4-24.2h-47.6v49.4h40.2Z" fill="#48433f"/>
      <path id="Pfad_145" d="M306.5,36.3v91.2c0,23,13.3,37.9,39.2,37.9s36.9-14.9,36.9-37.9V36.3h18.8v91.4c0,32.9-18.4,53.5-55.7,53.5s-58.1-19.4-58.1-53.5V36.3h18.8ZM335.2,20.6h-17.8V0h17.8v20.6ZM372.5,20.6h-17.8V0h17.8v20.6Z" fill="#48433f"/>
      <path id="Pfad_146" d="M448.9,36.3l74.5,114.8h.4V36.3h17.8v141.5h-20.6l-73.9-113.6h-.4v113.6h-17.8V36.3h20Z" fill="#48433f"/>
      <path id="Pfad_147" d="M667.5,36.3v15.9h-78.9v45h73.5v15.9h-73.5v49h79.5v15.9h-98.3V36.3h97.7Z" fill="#48433f"/>
      <path id="Pfad_148" d="M807.2,79.9h-18.8c-3.8-20-18.8-31.1-42-31.1s-48.6,25-48.6,60.1,4.6,29.7,13.5,40.4c8.7,10.7,20.6,16.1,35.1,16.1,27,0,45.4-18,45.4-44v-2.2h-45.2v-15.9h62.1v74.5h-11.9l-5-17.6c-10.3,13.3-27,21-45.4,21s-35.3-6.9-48.2-20.6c-12.9-13.9-19.2-30.9-19.2-50.7s5.9-40.8,18-55.3c12.1-14.3,28.5-21.6,49.4-21.6,33.3,0,56.5,16.5,60.9,47" fill="#48433f"/>
      <path id="Pfad_149" d="M955.3,79.9h-18.8c-3.8-20-18.8-31.1-42-31.1s-48.6,25-48.6,60.1,4.6,29.7,13.5,40.4c8.7,10.7,20.6,16.1,35.1,16.1,27,0,45.4-18,45.4-44v-2.2h-45.2v-15.9h62v74.5h-11.9l-5-17.6c-10.3,13.3-27,21-45.4,21s-35.3-6.9-48.2-20.6c-12.9-13.9-19.2-30.9-19.2-50.7s5.9-40.8,18-55.3c12.1-14.3,28.5-21.6,49.4-21.6,33.3,0,56.5,16.5,60.9,47" fill="#48433f"/>
    </g>
  </g>
  <metadata>
    <sfw xmlns="http://ns.adobe.com/SaveForWeb/1.0/">
      <slices/>
      <sliceSourceBounds x="-180.61" y="-511.82" width="956.73" height="181.18" bottomLeftOrigin="true"/>
    </sfw>
  </metadata>
</svg>