<?xml version="1.0" encoding="UTF-8"?>
<svg id="Ebene_1" data-name="Ebene 1" xmlns="http://www.w3.org/2000/svg" viewBox="0 0 956.73 181.18">
  <defs>
    <style>
      .cls-1 {
        fill: #48433f;
      }
    </style>
  </defs>
  <g id="Gruppe_143" data-name="Gruppe 143">
    <g id="Gruppe_142" data-name="Gruppe 142">
      <path id="Pfad_143" data-name="Pfad 143" class="cls-1" d="M128.26,79.88h-18.83c-3.77-20.02-18.84-31.12-42.03-31.12-30.73,0-48.57,24.98-48.57,60.07,0,16.06,4.56,29.73,13.48,40.43,8.72,10.7,20.61,16.05,35.08,16.05,26.96,0,45.39-18.04,45.39-44.01v-2.18h-45.19v-15.86h62.04v74.53h-11.89l-4.96-17.64c-10.3,13.28-26.96,21.01-45.39,21.01s-35.29-6.94-48.17-20.61C6.35,146.69,0,129.64,0,109.82c0-22.4,5.95-40.84,18.04-55.31,12.09-14.28,28.54-21.61,49.36-21.61,33.3,0,56.49,16.46,60.86,46.98"/>
      <path id="Pfad_144" data-name="Pfad 144" class="cls-1" d="M223.17,36.27c24.38,0,42.22,13.48,42.22,37.07,0,18.64-8.13,31.12-24.58,35.88v.4c14.08,2.78,20.61,11.1,21.6,37.07.6,16.65,2.97,24.78,7.93,31.12h-21.01c-2.38-3.17-2.58-5.55-3.37-10.9l-.8-15.46c-.26-7.69-1.87-15.27-4.76-22.4-2.97-7.53-9.32-11.5-19.23-11.69h-46.58v60.46h-18.83V36.27h67.39ZM214.85,101.49c20.81,0,31.71-7.93,31.71-25.18,0-15.26-8.92-24.18-24.38-24.18h-47.58v49.36h40.24Z"/>
      <path id="Pfad_145" data-name="Pfad 145" class="cls-1" d="M306.5,36.27v91.19c0,22.99,13.28,37.86,39.25,37.86,24.58,0,36.87-14.87,36.87-37.86V36.27h18.83v91.38c0,32.91-18.44,53.52-55.7,53.52s-58.08-19.43-58.08-53.52V36.27h18.83ZM335.24,20.61h-17.84V0h17.84v20.61ZM372.51,20.61h-17.84V0h17.84v20.61Z"/>
      <path id="Pfad_146" data-name="Pfad 146" class="cls-1" d="M448.93,36.27l74.53,114.77h.4V36.27h17.84v141.53h-20.62l-73.94-113.58h-.4v113.58h-17.84V36.27h20.02Z"/>
      <path id="Pfad_147" data-name="Pfad 147" class="cls-1" d="M667.54,36.27v15.86h-78.89v45h73.54v15.86h-73.54v48.96h79.48v15.86h-98.31V36.27h97.72Z"/>
      <path id="Pfad_148" data-name="Pfad 148" class="cls-1" d="M807.24,79.88h-18.83c-3.77-20.02-18.83-31.12-42.02-31.12-30.73,0-48.57,24.98-48.57,60.07,0,16.06,4.56,29.73,13.48,40.43,8.72,10.7,20.61,16.05,35.08,16.05,26.96,0,45.4-18.04,45.4-44.01v-2.18h-45.2v-15.86h62.05v74.53h-11.89l-4.95-17.64c-10.31,13.28-26.96,21.01-45.4,21.01s-35.29-6.94-48.17-20.61c-12.88-13.88-19.23-30.93-19.23-50.75,0-22.4,5.95-40.84,18.04-55.31,12.09-14.27,28.54-21.61,49.36-21.61,33.3,0,56.49,16.46,60.86,46.98"/>
      <path id="Pfad_149" data-name="Pfad 149" class="cls-1" d="M955.34,79.88h-18.83c-3.77-20.02-18.83-31.12-42.02-31.12-30.73,0-48.57,24.98-48.57,60.07,0,16.06,4.56,29.73,13.48,40.43,8.72,10.7,20.61,16.05,35.08,16.05,26.96,0,45.39-18.04,45.39-44.01v-2.18h-45.2v-15.86h62.05v74.53h-11.89l-4.95-17.64c-10.31,13.28-26.96,21.01-45.39,21.01s-35.29-6.94-48.17-20.61c-12.88-13.88-19.23-30.93-19.23-50.75,0-22.4,5.95-40.84,18.04-55.31,12.09-14.27,28.54-21.61,49.36-21.61,33.3,0,56.49,16.46,60.86,46.98"/>
    </g>
  </g>
</svg>