<?xml version="1.0" encoding="UTF-8"?>
<svg id="Ebene_1" data-name="Ebene 1" xmlns="http://www.w3.org/2000/svg" viewBox="0 0 24 36">
  <defs>
    <style>
      .cls-1 {
        fill: #747a6f;
      }

      .cls-2 {
        isolation: isolate;
      }

      .cls-3 {
        fill: #f4f2ec;
      }
    </style>
  </defs>
  <g id="Gruppe_153" data-name="Gruppe 153">
    <path class="cls-1" d="M24,12C24,5.37,18.63,0,12,0S0,5.37,0,12c0,1.79.29,3.43.99,4.96v.04s11.01,19,11.01,19l11-19,.02-.06c.7-1.52.98-3.15.98-4.94Z"/>
    <g id="G" class="cls-2">
      <g class="cls-2">
        <path class="cls-3" d="M14.16,19.83c-.83.33-1.66.49-2.5.49-1.07,0-2.02-.2-2.86-.59-.84-.39-1.55-.92-2.14-1.59-.59-.67-1.03-1.43-1.34-2.3-.31-.87-.46-1.77-.46-2.7,0-1.04.14-2.03.43-2.97.29-.94.71-1.76,1.28-2.47s1.27-1.27,2.12-1.69,1.84-.63,2.97-.63c.77,0,1.5.09,2.19.27.69.18,1.3.46,1.84.85.54.39.99.88,1.36,1.47.37.59.62,1.31.75,2.15h-1.9c-.09-.55-.27-1.02-.52-1.41s-.57-.72-.94-.97c-.37-.25-.8-.44-1.27-.57s-.98-.19-1.51-.19c-.87,0-1.61.17-2.23.52-.62.35-1.13.8-1.52,1.37-.39.57-.68,1.21-.87,1.94-.19.73-.28,1.47-.28,2.23s.11,1.46.32,2.15c.21.69.53,1.29.94,1.82.41.53.92.95,1.53,1.26.61.31,1.31.47,2.11.47.75,0,1.41-.12,1.98-.36.57-.24,1.06-.57,1.45-.99s.69-.91.89-1.48c.2-.57.29-1.18.26-1.83h-4.56v-1.6h6.26v7.52h-1.2l-.5-1.78c-.56.75-1.25,1.28-2.08,1.61Z"/>
      </g>
    </g>
  </g>
</svg>